<svg width="32" height="41" viewBox="0 0 32 41" fill="none" xmlns="http://www.w3.org/2000/svg">
    <path d="M21.7743 1.23102C21.5909 1.03784 21.3394 0.921875 21.0788 0.921875H5.4748C2.59546 0.921875 0.21875 3.28913 0.21875 6.16816V35.6754C0.21875 38.5547 2.59546 40.9219 5.4748 40.9219H26.6534C29.5328 40.9219 31.9095 38.5547 31.9095 35.6754V12.2454C31.9095 11.9943 31.7935 11.7529 31.6293 11.5692L21.7743 1.23102ZM22.0544 4.33253L28.6536 11.26H24.3637C23.0884 11.26 22.0544 10.2359 22.0544 8.96052V4.33253ZM26.6534 38.9896H5.4748C3.66816 38.9896 2.15113 37.4921 2.15113 35.6754V6.16816C2.15113 4.36152 3.65839 2.85425 5.4748 2.85425H20.122V8.96052C20.122 11.3082 22.016 13.1924 24.3637 13.1924H29.9771V35.6754C29.9771 37.4921 28.4698 38.9896 26.6534 38.9896Z" fill="#00AEEF"/>
    <path d="M24.016 32.323H8.11267C7.58136 32.323 7.14648 32.7576 7.14648 33.2892C7.14648 33.8205 7.58136 34.2554 8.11267 34.2554H24.0258C24.5571 34.2554 24.992 33.8205 24.992 33.2892C24.992 32.7576 24.5571 32.323 24.016 32.323Z" fill="#00AEEF"/>
    <path d="M11.775 26.3132C12.0457 26.3132 12.316 26.1973 12.5092 25.9751C12.8571 25.5692 12.8089 24.9607 12.403 24.6128L8.92493 21.6465L12.403 18.6805C12.8089 18.3326 12.8571 17.7237 12.5092 17.3182C12.1616 16.9123 11.5528 16.8637 11.1469 17.2116L6.80884 20.9122C6.59644 21.0959 6.4707 21.3663 6.4707 21.6465C6.4707 21.9266 6.59613 22.1973 6.80884 22.3807L11.1469 26.0813C11.3306 26.236 11.5528 26.3132 11.775 26.3132Z" fill="#00AEEF"/>
    <path d="M25.3196 20.9123L20.9816 17.2118C20.5757 16.8642 19.9671 16.9124 19.6192 17.3183C19.2713 17.7239 19.3196 18.3327 19.7254 18.6806L23.2039 21.6466L19.7254 24.6129C19.3199 24.9608 19.2713 25.5693 19.6192 25.9752C19.8124 26.1974 20.0831 26.3134 20.3535 26.3134C20.5757 26.3134 20.7978 26.2361 20.9816 26.0817L25.3196 22.3812C25.5324 22.1974 25.6578 21.9271 25.6578 21.6466C25.6578 21.3664 25.5324 21.0961 25.3196 20.9123Z" fill="#00AEEF"/>
    <path d="M14.3239 29.0669C14.3917 29.0767 14.4594 29.0864 14.5269 29.0864C14.9712 29.0864 15.3771 28.7773 15.4738 28.3232L18.1792 15.4728C18.2854 14.951 17.9567 14.4389 17.4352 14.3327C16.9133 14.2265 16.4013 14.5548 16.2951 15.0767L13.5897 27.9268C13.4737 28.4388 13.8024 28.9509 14.3239 29.0669Z" fill="#00AEEF"/>
</svg>
