<svg width="33" height="41" viewBox="0 0 33 41" fill="none" xmlns="http://www.w3.org/2000/svg">
<path d="M22.4506 0.311096C22.2672 0.11792 22.0157 0.00195312 21.7551 0.00195312H6.15118C3.27185 0.00195312 0.895142 2.3692 0.895142 5.24823V34.7554C0.895142 37.6347 3.27185 40.002 6.15118 40.002H27.3298C30.2091 40.002 32.5858 37.6347 32.5858 34.7554V11.3255C32.5858 11.0743 32.4699 10.8329 32.3057 10.6492L22.4506 0.311096ZM22.7308 3.4126L29.3299 10.3401H25.04C23.7647 10.3401 22.7308 9.31592 22.7308 8.04059V3.4126ZM27.3298 38.0696H6.15118C4.34454 38.0696 2.82751 36.5721 2.82751 34.7554V5.24823C2.82751 3.44159 4.33478 1.93433 6.15118 1.93433H20.7984V8.04059C20.7984 10.3883 22.6923 12.2725 25.04 12.2725H30.6534V34.7554C30.6534 36.5721 29.1462 38.0696 27.3298 38.0696Z" fill="#00AEEF"/>
<path d="M24.6921 31.4031H8.78876C8.25745 31.4031 7.82257 31.8376 7.82257 32.3693C7.82257 32.9006 8.25745 33.3354 8.78876 33.3354H24.7018C25.2332 33.3354 25.668 32.9006 25.668 32.3693C25.668 31.8376 25.2332 31.4031 24.6921 31.4031Z" fill="#00AEEF"/>
<path d="M20.6921 19.5189H17.7066V16.5333C17.7066 16.002 17.2717 15.5671 16.7404 15.5671C16.2091 15.5671 15.7742 16.002 15.7742 16.5333V19.5189H12.7887C12.2574 19.5189 11.8225 19.9537 11.8225 20.485C11.8225 21.0164 12.2574 21.4512 12.7887 21.4512H15.7742V24.4368C15.7742 24.9681 16.2091 25.403 16.7404 25.403C17.2717 25.403 17.7066 24.9681 17.7066 24.4368V21.4512H20.6921C21.2234 21.4512 21.6583 21.0164 21.6583 20.485C21.6583 19.9537 21.2234 19.5189 20.6921 19.5189Z" fill="#00AEEF"/>
<path d="M16.7404 10.6398C11.3104 10.6398 6.89514 15.0551 6.89514 20.485C6.89514 25.915 11.3104 30.3306 16.7404 30.3306C22.1704 30.3306 26.586 25.915 26.586 20.485C26.586 15.0551 22.1704 10.6398 16.7404 10.6398ZM16.7404 28.3979C12.3734 28.3979 8.82751 24.8521 8.82751 20.485C8.82751 16.118 12.3734 12.5721 16.7404 12.5721C21.1075 12.5721 24.6533 16.118 24.6533 20.485C24.6533 24.8521 21.1075 28.3979 16.7404 28.3979Z" fill="#00AEEF"/>
</svg>
