<svg width="33" height="41" viewBox="0 0 33 41" fill="none" xmlns="http://www.w3.org/2000/svg">
<path d="M22.4506 0.311096C22.2672 0.11792 22.0157 0.00195312 21.7551 0.00195312H6.15118C3.27185 0.00195312 0.895142 2.3692 0.895142 5.24823V34.7554C0.895142 37.6347 3.27185 40.002 6.15118 40.002H27.3298C30.2091 40.002 32.5858 37.6347 32.5858 34.7554V11.3255C32.5858 11.0743 32.4699 10.8329 32.3057 10.6492L22.4506 0.311096ZM22.7308 3.4126L29.3299 10.3401H25.04C23.7647 10.3401 22.7308 9.31592 22.7308 8.04059V3.4126ZM27.3298 38.0696H6.15118C4.34454 38.0696 2.82751 36.5721 2.82751 34.7554V5.24823C2.82751 3.44159 4.33478 1.93433 6.15118 1.93433H20.7984V8.04059C20.7984 10.3883 22.6923 12.2725 25.04 12.2725H30.6534V34.7554C30.6534 36.5721 29.1462 38.0696 27.3298 38.0696Z" fill="#00AEEF"/>
<path d="M24.6921 31.4031H8.78874C8.25743 31.4031 7.82256 31.8376 7.82256 32.3693C7.82256 32.9006 8.25743 33.3354 8.78874 33.3354H24.7018C25.2331 33.3354 25.668 32.9006 25.668 32.3693C25.668 31.8376 25.2331 31.4031 24.6921 31.4031Z" fill="#00AEEF"/>
<path d="M11.7935 21.0069L15.7742 16.7265V27.2773C15.7742 27.8087 16.2091 28.2435 16.7404 28.2435C17.272 28.2435 17.7066 27.8087 17.7066 27.2773V16.7265L21.6873 21.0069C21.8805 21.2095 22.1319 21.316 22.3926 21.316C22.6245 21.316 22.8662 21.2291 23.0496 21.0551C23.4363 20.688 23.4653 20.0792 23.0981 19.6928L17.4362 13.6155C17.2525 13.4224 17.0013 13.3064 16.7309 13.3064C16.4603 13.3064 16.2091 13.4224 16.0257 13.6155L10.3638 19.6928C9.99663 20.0792 10.0256 20.6974 10.412 21.0551C10.8179 21.4222 11.4264 21.3932 11.7935 21.0069Z" fill="#00AEEF"/>
</svg>
