<svg width="33" height="41" viewBox="0 0 33 41" fill="none" xmlns="http://www.w3.org/2000/svg">
<path d="M22.4506 0.311096C22.2672 0.11792 22.0157 0.00195312 21.7551 0.00195312H6.15118C3.27185 0.00195312 0.895142 2.3692 0.895142 5.24823V34.7554C0.895142 37.6347 3.27185 40.002 6.15118 40.002H27.3298C30.2091 40.002 32.5858 37.6347 32.5858 34.7554V11.3255C32.5858 11.0743 32.4699 10.8329 32.3057 10.6492L22.4506 0.311096ZM22.7308 3.4126L29.3299 10.3401H25.04C23.7647 10.3401 22.7308 9.31592 22.7308 8.04059V3.4126ZM27.3298 38.0696H6.15118C4.34454 38.0696 2.82751 36.5721 2.82751 34.7554V5.24823C2.82751 3.44159 4.33478 1.93433 6.15118 1.93433H20.7984V8.04059C20.7984 10.3883 22.6923 12.2725 25.04 12.2725H30.6534V34.7554C30.6534 36.5721 29.1462 38.0696 27.3298 38.0696Z" fill="#00AEEF"/>
<path d="M24.6921 31.4031H8.78876C8.25745 31.4031 7.82257 31.8376 7.82257 32.3693C7.82257 32.9006 8.25745 33.3354 8.78876 33.3354H24.7018C25.2332 33.3354 25.668 32.9006 25.668 32.3693C25.668 31.8376 25.2332 31.4031 24.6921 31.4031Z" fill="#00AEEF"/>
<path d="M10.1703 28.5045C10.267 28.5045 10.3638 28.4853 10.4602 28.456L15.9482 26.7265C16.0931 26.6783 16.2283 26.6011 16.3443 26.4851L24.9628 17.8377C25.3397 17.4608 25.3397 16.8523 24.9628 16.4754L21.2332 12.7458C20.8563 12.3692 20.2478 12.3692 19.8709 12.7458L11.2235 21.3741C11.1173 21.4803 11.0303 21.6154 10.9821 21.7702L9.24287 27.2484C9.13667 27.5963 9.22364 27.9634 9.48457 28.224C9.66798 28.4077 9.91914 28.5045 10.1703 28.5045ZM12.3444 23.857L13.8516 25.3642L11.6489 26.06L12.3444 23.857ZM20.5472 14.7942L22.9144 17.1614L15.6583 24.4368L13.2718 22.0503L20.5472 14.7942Z" fill="#00AEEF"/>
</svg>
