<svg width="72" height="90" viewBox="0 0 72 90" fill="none" xmlns="http://www.w3.org/2000/svg">
<path d="M48.4998 0.695572C48.0872 0.260925 47.5214 0 46.935 0H11.8261C5.3476 0 0 5.32631 0 11.8041V78.1952C0 84.6737 5.3476 90 11.8261 90H59.4779C65.9564 90 71.304 84.6737 71.304 78.1952V25.478C71.304 24.9129 71.0431 24.3697 70.6737 23.9564L48.4998 0.695572ZM49.1302 7.67395L63.9782 23.2608H54.326C51.4565 23.2608 49.1302 20.9564 49.1302 18.0869V7.67395ZM59.4779 85.6522H11.8261C7.76115 85.6522 4.34784 82.2828 4.34784 78.1952V11.8041C4.34784 7.73918 7.73918 4.34784 11.8261 4.34784H44.7823V18.0869C44.7823 23.3693 49.0437 27.6086 54.326 27.6086H66.9562V78.1952C66.9562 82.2828 63.5648 85.6522 59.4779 85.6522Z" fill="#00AEEF"/>
<path d="M53.5433 70.6523H17.7608C16.5654 70.6523 15.5869 71.6301 15.5869 72.8263C15.5869 74.0217 16.5654 75.0002 17.7608 75.0002H53.5653C54.7607 75.0002 55.7392 74.0217 55.7392 72.8263C55.7392 71.6301 54.7607 70.6523 53.5433 70.6523Z" fill="#00AEEF"/>
<path d="M37.1952 58.4779L34.3037 55.5864C33.4557 54.7391 32.0866 54.7391 31.2385 55.5864C30.3905 56.4345 30.3905 57.8043 31.2385 58.6516L34.152 61.5651C36.4124 63.8042 39.3691 64.9131 42.3258 64.9131C45.2825 64.9131 48.2385 63.7822 50.4996 61.5431C54.9779 57.0215 54.956 49.6737 50.4996 45.1954L47.6082 42.304C46.7602 41.456 45.391 41.456 44.543 42.304C43.695 43.152 43.695 44.5212 44.543 45.3692L47.4345 48.2606C50.2167 51.0436 50.2167 55.6304 47.4345 58.4566C44.5862 61.2609 40.0214 61.2609 37.1952 58.4779Z" fill="#00AEEF"/>
<path d="M23.7395 51.1735C24.1742 51.6081 24.7173 51.8038 25.2824 51.8038C25.8482 51.8038 26.3913 51.5868 26.826 51.1735C27.674 50.3254 27.674 48.9563 26.826 48.1083L23.9132 45.1955C21.1303 42.4125 21.1303 37.8257 23.9132 34.9995C26.6962 32.2172 31.283 32.2172 34.1092 34.9995L37 37.891C37.848 38.739 39.2179 38.739 40.0652 37.891C40.9132 37.043 40.9132 35.6738 40.0652 34.8258L37.1744 31.913C32.6522 27.4347 25.3044 27.456 20.8261 31.9343C16.3478 36.4559 16.3697 43.8037 20.8261 48.282L23.7395 51.1735Z" fill="#00AEEF"/>
<path d="M30.3694 41.4563C29.5214 42.3043 29.5214 43.6742 30.3694 44.5215L37.8477 51.9997C38.2823 52.4351 38.8254 52.6308 39.3912 52.6308C39.9563 52.6308 40.4995 52.4131 40.9348 51.9997C41.7821 51.1524 41.7821 49.7826 40.9348 48.9345L33.4566 41.4563C32.6086 40.609 31.2174 40.609 30.3694 41.4563Z" fill="#00AEEF"/>
</svg>
