<svg width="72" height="90" viewBox="0 0 72 90" fill="none" xmlns="http://www.w3.org/2000/svg">
<path d="M48.4999 0.695573C48.0873 0.260926 47.5215 0 46.9351 0H11.8261C5.34761 0 0 5.32632 0 11.8041V78.1953C0 84.6739 5.34761 90.0002 11.8261 90.0002H59.478C65.9566 90.0002 71.3042 84.6739 71.3042 78.1953V25.478C71.3042 24.9129 71.0432 24.3698 70.6738 23.9564L48.4999 0.695573ZM49.1303 7.67396L63.9783 23.2608H54.3261C51.4566 23.2608 49.1303 20.9565 49.1303 18.087V7.67396ZM59.478 85.6523H11.8261C7.76117 85.6523 4.34785 82.2829 4.34785 78.1953V11.8041C4.34785 7.7392 7.7392 4.34785 11.8261 4.34785H44.7824V18.087C44.7824 23.3693 49.0438 27.6087 54.3261 27.6087H66.9563V78.1953C66.9563 82.2829 63.565 85.6523 59.478 85.6523Z" fill="#00AEEF"/>
<path d="M53.5434 70.6523H17.7608C16.5654 70.6523 15.5869 71.6301 15.5869 72.8263C15.5869 74.0217 16.5654 75.0002 17.7608 75.0002H53.5653C54.7608 75.0002 55.7393 74.0217 55.7393 72.8263C55.7393 71.6301 54.7608 70.6523 53.5434 70.6523Z" fill="#00AEEF"/>
<path d="M55.8693 34.565C55.8693 33.3696 54.8909 32.3911 53.6954 32.3911H17.608C16.4126 32.3911 15.4341 33.3696 15.4341 34.565V58.9128C15.4341 60.109 16.4126 61.0868 17.608 61.0868H53.6954C54.8909 61.0868 55.8693 60.109 55.8693 58.9128V34.565ZM35.6297 47.6738L23.3037 36.739H47.9997L35.6297 47.6738ZM25.9995 44.9128L19.7819 52.7172V39.3915L25.9995 44.9128ZM29.2384 47.7823L34.1953 52.1741C34.608 52.5435 35.1299 52.7172 35.6297 52.7172C36.1516 52.7172 36.6515 52.5435 37.0648 52.1741L41.9558 47.8262L49.1519 56.7176H22.0863L29.2384 47.7823ZM45.1954 44.978L51.5215 39.3695V52.7825L45.1954 44.978Z" fill="#00AEEF"/>
</svg>
