<svg width="26" height="32" viewBox="0 0 26 32" fill="none" xmlns="http://www.w3.org/2000/svg">
<path d="M17.2444 0.247314C17.0977 0.0927734 16.8965 0 16.688 0H4.20483C1.90137 0 0 1.8938 0 4.19702V27.8027C0 30.1062 1.90137 32 4.20483 32H21.1477C23.4512 32 25.3525 30.1062 25.3525 27.8027V9.05884C25.3525 8.85791 25.2598 8.66479 25.1284 8.51782L17.2444 0.247314ZM17.4685 2.72852L22.7478 8.27051H19.3159C18.2957 8.27051 17.4685 7.45117 17.4685 6.43091V2.72852ZM21.1477 30.4541H4.20483C2.75952 30.4541 1.5459 29.2561 1.5459 27.8027V4.19702C1.5459 2.75171 2.75171 1.5459 4.20483 1.5459H15.9226V6.43091C15.9226 8.30908 17.4377 9.81641 19.3159 9.81641H23.8066V27.8027C23.8066 29.2561 22.6008 30.4541 21.1477 30.4541Z" fill="#00AEEF"/>
<path d="M19.0374 25.1208H6.3147C5.88965 25.1208 5.54175 25.4685 5.54175 25.8938C5.54175 26.3188 5.88965 26.6667 6.3147 26.6667H19.0452C19.4702 26.6667 19.8181 26.3188 19.8181 25.8938C19.8181 25.4685 19.4702 25.1208 19.0374 25.1208Z" fill="#00AEEF"/>
<path d="M15.2966 16.1545H13.0627V13.0164C13.0627 12.5913 12.7151 12.2434 12.2898 12.2434C11.8647 12.2434 11.5168 12.5913 11.5168 13.0164V16.9507C11.5168 17.376 11.8723 17.7004 12.3052 17.7004H15.3042C15.7295 17.7004 16.0771 17.3528 16.0771 16.9275C16.0771 16.5024 15.7217 16.1545 15.2966 16.1545Z" fill="#00AEEF"/>
<path d="M12.6763 8.51025C8.33228 8.51025 4.80005 12.0425 4.80005 16.3865C4.80005 20.7305 8.33228 24.2629 12.6763 24.2629C17.0203 24.2629 20.5527 20.7305 20.5527 16.3865C20.5527 12.0425 17.0203 8.51025 12.6763 8.51025ZM12.6763 22.7168C9.18262 22.7168 6.34595 19.8801 6.34595 16.3865C6.34595 12.8928 9.18262 10.0562 12.6763 10.0562C16.1699 10.0562 19.0066 12.8928 19.0066 16.3865C19.0066 19.8801 16.1699 22.7168 12.6763 22.7168Z" fill="#00AEEF"/>
</svg>
