<svg width="33" height="41" viewBox="0 0 33 41" fill="none" xmlns="http://www.w3.org/2000/svg">
<path d="M22.4505 0.311096C22.2671 0.11792 22.0156 0.00195312 21.755 0.00195312H6.15106C3.27173 0.00195312 0.89502 2.3692 0.89502 5.24823V34.7554C0.89502 37.6347 3.27173 40.002 6.15106 40.002H27.3297C30.209 40.002 32.5857 37.6347 32.5857 34.7554V11.3255C32.5857 11.0743 32.4697 10.8329 32.3055 10.6492L22.4505 0.311096ZM22.7307 3.4126L29.3298 10.3401H25.0399C23.7646 10.3401 22.7307 9.31592 22.7307 8.04059V3.4126ZM27.3297 38.0696H6.15106C4.34442 38.0696 2.82739 36.5721 2.82739 34.7554V5.24823C2.82739 3.44159 4.33466 1.93433 6.15106 1.93433H20.7983V8.04059C20.7983 10.3883 22.6922 12.2725 25.0399 12.2725H30.6533V34.7554C30.6533 36.5721 29.1461 38.0696 27.3297 38.0696Z" fill="#00AEEF"/>
<path d="M26.1797 31H12.8121C12.3655 31 12 31.4498 12 32C12 32.5499 12.3655 33 12.8121 33H26.1879C26.6345 33 27 32.5499 27 32C27 31.4498 26.6345 31 26.1797 31Z" fill="#00AEEF"/>
<path d="M26.1797 25H12.8121C12.3655 25 12 25.4498 12 26C12 26.5499 12.3655 27 12.8121 27H26.1879C26.6345 27 27 26.5499 27 26C27 25.4498 26.6345 25 26.1797 25Z" fill="#00AEEF"/>
<path d="M23.3437 19H12.6497C12.2924 19 12 19.4498 12 20C12 20.5499 12.2924 21 12.6497 21H23.3503C23.7076 21 24 20.5499 24 20C24 19.4498 23.7076 19 23.3437 19Z" fill="#00AEEF"/>
<path d="M8.92114 18.8179L8.7498 18.6567L8.57852 18.818L7.12497 20.1862L6.4213 19.5239L6.24996 19.3626L6.07861 19.5239L5.82866 19.7591L5.63523 19.9412L5.82866 20.1232L6.95364 21.182L7.12498 21.3433L7.29632 21.182L9.17134 19.4173L9.36484 19.2352L9.17128 19.0531L8.92114 18.8179Z" fill="#00AEEF" stroke="#00AEEF" stroke-width="0.5"/>
<path d="M8.92114 24.8179L8.7498 24.6567L8.57852 24.818L7.12497 26.1862L6.4213 25.5239L6.24996 25.3626L6.07861 25.5239L5.82866 25.7591L5.63523 25.9412L5.82866 26.1232L6.95364 27.182L7.12498 27.3433L7.29632 27.182L9.17134 25.4173L9.36484 25.2352L9.17128 25.0531L8.92114 24.8179Z" fill="#00AEEF" stroke="#00AEEF" stroke-width="0.5"/>
<path d="M8.92114 30.8179L8.7498 30.6567L8.57852 30.818L7.12497 32.1862L6.4213 31.5239L6.24996 31.3626L6.07861 31.5239L5.82866 31.7591L5.63523 31.9412L5.82866 32.1232L6.95364 33.182L7.12498 33.3433L7.29632 33.182L9.17134 31.4173L9.36484 31.2352L9.17128 31.0531L8.92114 30.8179Z" fill="#00AEEF" stroke="#00AEEF" stroke-width="0.5"/>
</svg>
