<svg width="26" height="32" viewBox="0 0 26 32" fill="none" xmlns="http://www.w3.org/2000/svg">
<path d="M17.2444 0.247314C17.0977 0.0927734 16.8965 0 16.688 0H4.20483C1.90137 0 0 1.8938 0 4.19702V27.8027C0 30.1062 1.90137 32 4.20483 32H21.1477C23.4512 32 25.3525 30.1062 25.3525 27.8027V9.05884C25.3525 8.85791 25.2598 8.66479 25.1284 8.51782L17.2444 0.247314ZM17.4685 2.72852L22.7478 8.27051H19.3159C18.2957 8.27051 17.4685 7.45117 17.4685 6.43091V2.72852ZM21.1477 30.4541H4.20483C2.75952 30.4541 1.5459 29.2561 1.5459 27.8027V4.19702C1.5459 2.75171 2.75171 1.5459 4.20483 1.5459H15.9226V6.43091C15.9226 8.30908 17.4377 9.81641 19.3159 9.81641H23.8066V27.8027C23.8066 29.2561 22.6008 30.4541 21.1477 30.4541Z" fill="white"/>
<path d="M19.0376 25.1208H6.31494C5.88989 25.1208 5.54199 25.4685 5.54199 25.8938C5.54199 26.3188 5.88989 26.6667 6.31494 26.6667H19.0454C19.4705 26.6667 19.8184 26.3188 19.8184 25.8938C19.8184 25.4685 19.4705 25.1208 19.0376 25.1208Z" fill="white"/>
<path d="M12.6763 20.7227C13.1013 20.7227 13.4492 20.3748 13.4492 19.9497V18.6975C13.4492 18.2725 13.1013 17.9246 12.6763 17.9246C12.2512 17.9246 11.9033 18.2725 11.9033 18.6975V19.9497C11.9033 20.3748 12.2512 20.7227 12.6763 20.7227Z" fill="white"/>
<path d="M12.6763 24.1777C15.6599 24.1777 18.0791 21.7507 18.0791 18.7671C18.0791 17.2212 17.4685 15.8298 16.3865 14.8406V12.7769C16.3865 10.7285 14.7246 9.05884 12.6763 9.05884C10.6279 9.05884 8.96606 10.7285 8.96606 12.7769V14.8406C7.88403 15.8301 7.27344 17.2212 7.27344 18.7671C7.27344 21.7507 9.69263 24.1777 12.6763 24.1777ZM10.512 12.7769C10.512 11.5786 11.4783 10.6047 12.6763 10.6047C13.8743 10.6047 14.8406 11.5786 14.8406 12.7769V13.8125C14.1448 13.5188 13.4492 13.3564 12.6763 13.3564C11.9033 13.3564 11.2078 13.5188 10.512 13.8125V12.7769ZM12.6763 14.9023C14.8096 14.9023 16.541 16.6338 16.541 18.7671C16.541 20.9004 14.8096 22.6318 12.6763 22.6318C10.543 22.6318 8.81152 20.9004 8.81152 18.7671C8.81152 16.6338 10.543 14.9023 12.6763 14.9023Z" fill="white"/>
</svg>
