<svg width="26" height="32" viewBox="0 0 26 32" fill="none" xmlns="http://www.w3.org/2000/svg">
<path d="M17.2444 0.247314C17.0977 0.0927734 16.8965 0 16.688 0H4.20483C1.90137 0 0 1.8938 0 4.19702V27.8027C0 30.1062 1.90137 32 4.20483 32H21.1477C23.4512 32 25.3525 30.1062 25.3525 27.8027V9.05884C25.3525 8.85791 25.2598 8.66479 25.1284 8.51782L17.2444 0.247314ZM17.4685 2.72852L22.7478 8.27051H19.3159C18.2957 8.27051 17.4685 7.45117 17.4685 6.43091V2.72852ZM21.1477 30.4541H4.20483C2.75952 30.4541 1.5459 29.2561 1.5459 27.8027V4.19702C1.5459 2.75171 2.75171 1.5459 4.20483 1.5459H15.9226V6.43091C15.9226 8.30908 17.4377 9.81641 19.3159 9.81641H23.8066V27.8027C23.8066 29.2561 22.6008 30.4541 21.1477 30.4541Z" fill="white"/>
<path d="M19.0376 25.1208H6.31494C5.88989 25.1208 5.54199 25.4685 5.54199 25.8938C5.54199 26.3188 5.88989 26.6667 6.31494 26.6667H19.0454C19.4705 26.6667 19.8184 26.3188 19.8184 25.8938C19.8184 25.4685 19.4705 25.1208 19.0376 25.1208Z" fill="white"/>
<path d="M19.0376 19.7875H6.31494C5.88989 19.7875 5.54199 20.1352 5.54199 20.5605C5.54199 20.9855 5.88989 21.3334 6.31494 21.3334H19.0454C19.4705 21.3334 19.8184 20.9855 19.8184 20.5605C19.8184 20.1352 19.4705 19.7875 19.0376 19.7875Z" fill="white"/>
<path d="M19.0376 14.4542H6.31494C5.88989 14.4542 5.54199 14.8018 5.54199 15.2271C5.54199 15.6522 5.88989 16.0001 6.31494 16.0001H19.0454C19.4705 16.0001 19.8184 15.6522 19.8184 15.2271C19.8184 14.8018 19.4705 14.4542 19.0376 14.4542Z" fill="white"/>
</svg>
