<svg width="26" height="32" viewBox="0 0 26 32" fill="none" xmlns="http://www.w3.org/2000/svg">
<path d="M17.2444 0.247315C17.0977 0.0927736 16.8965 0 16.688 0H4.20484C1.90137 0 0 1.8938 0 4.19703V27.8028C0 30.1063 1.90137 32.0001 4.20484 32.0001H21.1477C23.4512 32.0001 25.3526 30.1063 25.3526 27.8028V9.05886C25.3526 8.85793 25.2598 8.66481 25.1285 8.51784L17.2444 0.247315ZM17.4685 2.72852L22.7478 8.27052H19.316C18.2957 8.27052 17.4685 7.45119 17.4685 6.43092V2.72852ZM21.1477 30.4542H4.20484C2.75953 30.4542 1.5459 29.2562 1.5459 27.8028V4.19703C1.5459 2.75171 2.75171 1.5459 4.20484 1.5459H15.9226V6.43092C15.9226 8.3091 17.4378 9.81643 19.316 9.81643H23.8067V27.8028C23.8067 29.2562 22.6009 30.4542 21.1477 30.4542Z" fill="white"/>
<path d="M19.0374 25.1208H6.31476C5.88971 25.1208 5.54181 25.4685 5.54181 25.8938C5.54181 26.3189 5.88971 26.6668 6.31476 26.6668H19.0453C19.4703 26.6668 19.8182 26.3189 19.8182 25.8938C19.8182 25.4685 19.4703 25.1208 19.0374 25.1208Z" fill="white"/>
<path d="M18.3341 15.0725C18.8751 14.655 19.2308 13.9981 19.2308 13.2637C19.2308 12.0039 18.2105 10.9836 16.9505 10.9836C15.6908 10.9836 14.6702 12.0039 14.6702 13.2637C14.6702 13.2869 14.6702 13.3101 14.6702 13.3333C14.2838 12.6221 13.534 12.1353 12.6683 12.1353C11.8026 12.1353 11.0452 12.6223 10.6666 13.3333C10.6666 13.3101 10.6666 13.2947 10.6666 13.2715C10.6666 13.2637 10.6666 13.2637 10.6666 13.2561C10.6666 11.9961 9.64607 10.9758 8.3863 10.9758C7.12629 10.9758 6.10602 12.0115 6.10602 13.2715C6.10602 14.0059 6.46149 14.6628 7.01032 15.0801C5.85089 15.4898 5.02399 16.603 5.02399 17.9014V20.3054C5.02399 20.7305 5.35626 21.1013 5.78156 21.1013H9.27522V21.4724C9.27522 21.8975 9.6385 22.2608 10.0635 22.2608H15.2655C15.6908 22.2608 16.0694 21.9053 16.0694 21.4724V21.1013H19.5631C19.9884 21.1013 20.3206 20.7305 20.3206 20.3054V17.9014C20.3282 16.5952 19.4935 15.4822 18.3341 15.0725ZM16.9505 12.5371C17.3524 12.5371 17.6849 12.8696 17.6849 13.2715C17.6849 13.6812 17.3602 14.0059 16.9505 14.0059C16.5487 14.0059 16.2161 13.6733 16.2161 13.2715C16.2161 12.8696 16.5487 12.5371 16.9505 12.5371ZM15.5748 15.0879C15.1959 15.2271 14.8558 15.4358 14.5621 15.6985C14.8094 15.3352 14.9486 14.8948 14.9486 14.4231C14.9486 14.3999 14.9486 14.377 14.9486 14.3535C15.1031 14.6397 15.3197 14.887 15.5748 15.0879ZM11.2694 16.2627C11.254 16.2395 11.2384 16.2087 11.2152 16.1856C11.2462 16.2087 11.2694 16.2319 11.3004 16.2551C11.2926 16.2551 11.2772 16.2551 11.2694 16.2627ZM14.0753 16.2627C14.0596 16.2551 14.0521 16.2551 14.0365 16.2473C14.0753 16.2163 14.1138 16.1931 14.1446 16.1624C14.1217 16.1934 14.0985 16.2241 14.0753 16.2627ZM12.6683 13.689C13.0704 13.689 13.4027 14.0212 13.4027 14.4231C13.4027 14.825 13.0704 15.1575 12.6683 15.1575C12.2664 15.1575 11.9342 14.825 11.9342 14.4231C11.9342 14.0212 12.2664 13.689 12.6683 13.689ZM10.3883 14.346C10.3883 14.3691 10.3883 14.3999 10.3883 14.4231C10.3883 14.887 10.5274 15.312 10.7591 15.6675C10.4732 15.4126 10.1331 15.2114 9.76985 15.0801C10.025 14.887 10.2337 14.6397 10.3883 14.346ZM8.3863 12.5371C8.78815 12.5371 9.11286 12.8618 9.12043 13.2637C9.11286 13.6812 8.78815 14.0059 8.3863 14.0059C7.98444 14.0059 7.65192 13.6733 7.65192 13.2715C7.65192 12.8696 7.97663 12.5371 8.3863 12.5371ZM6.56989 19.5557V17.9014C6.56989 17.1052 7.20368 16.4639 8.00764 16.4639H8.77277C9.28278 16.4639 9.73884 16.7266 10.0018 17.1516C9.5611 17.6697 9.28278 18.3421 9.28278 19.0762V19.5554H6.56989V19.5557ZM14.5313 20.7149H10.8211V19.0764C10.8211 18.2803 11.4857 17.6233 12.2896 17.6233H13.0548C13.8509 17.6233 14.5389 18.2725 14.5389 19.0764V20.7149H14.5313ZM18.7823 19.5557H16.077V19.0764C16.077 18.3421 15.7989 17.6773 15.3582 17.1594C15.6209 16.7344 16.077 16.4639 16.5872 16.4639H17.3524C18.1485 16.4639 18.7901 17.1052 18.7901 17.9014V19.5557H18.7823Z" fill="white"/>
</svg>
