<svg width="26" height="32" viewBox="0 0 26 32" fill="none" xmlns="http://www.w3.org/2000/svg">
<path d="M17.2444 0.247314C17.0977 0.0927734 16.8965 0 16.688 0H4.20483C1.90137 0 0 1.8938 0 4.19702V27.8027C0 30.1062 1.90137 32 4.20483 32H21.1477C23.4512 32 25.3525 30.1062 25.3525 27.8027V9.05884C25.3525 8.85791 25.2598 8.66479 25.1284 8.51782L17.2444 0.247314ZM17.4685 2.72852L22.7478 8.27051H19.3159C18.2957 8.27051 17.4685 7.45117 17.4685 6.43091V2.72852ZM21.1477 30.4541H4.20483C2.75952 30.4541 1.5459 29.2561 1.5459 27.8027V4.19702C1.5459 2.75171 2.75171 1.5459 4.20483 1.5459H15.9226V6.43091C15.9226 8.30908 17.4377 9.81641 19.3159 9.81641H23.8066V27.8027C23.8066 29.2561 22.6008 30.4541 21.1477 30.4541Z" fill="white"/>
<path d="M19.0376 25.1208H6.31494C5.88989 25.1208 5.54199 25.4685 5.54199 25.8938C5.54199 26.3188 5.88989 26.6667 6.31494 26.6667H19.0454C19.4705 26.6667 19.8184 26.3188 19.8184 25.8938C19.8184 25.4685 19.4705 25.1208 19.0376 25.1208Z" fill="white"/>
<path d="M8.44818 23.9614H16.9042C17.3293 23.9614 17.7004 23.6057 17.7004 23.1807V19.6096C17.7004 17.1904 15.7138 15.2271 13.2946 15.2271H12.0578C9.63861 15.2271 7.65204 17.1904 7.65204 19.6096V23.1807C7.65204 23.6057 8.02313 23.9614 8.44818 23.9614ZM9.19794 19.6096C9.19794 18.0483 10.4965 16.7729 12.0578 16.7729H13.2946C14.8559 16.7729 16.1545 18.0405 16.1545 19.6096V22.4155H9.19794V19.6096Z" fill="white"/>
<path d="M12.6763 15.1111C14.4541 15.1111 15.8994 13.6658 15.8994 11.8879C15.8994 10.1101 14.4541 8.66479 12.6763 8.66479C10.8984 8.66479 9.45312 10.1101 9.45312 11.8879C9.45312 13.6658 10.8984 15.1111 12.6763 15.1111ZM12.6763 10.2107C13.6038 10.2107 14.3535 10.9604 14.3535 11.8879C14.3535 12.8154 13.6038 13.5652 12.6763 13.5652C11.7488 13.5652 10.999 12.8154 10.999 11.8879C10.999 10.9604 11.7488 10.2107 12.6763 10.2107Z" fill="white"/>
</svg>
