<svg width="26" height="32" viewBox="0 0 26 32" fill="none" xmlns="http://www.w3.org/2000/svg">
<path d="M17.2444 0.247314C17.0977 0.0927734 16.8965 0 16.688 0H4.20483C1.90137 0 0 1.8938 0 4.19702V27.8027C0 30.1062 1.90137 32 4.20483 32H21.1477C23.4512 32 25.3525 30.1062 25.3525 27.8027V9.05884C25.3525 8.85791 25.2598 8.66479 25.1284 8.51782L17.2444 0.247314ZM17.4685 2.72852L22.7478 8.27051H19.3159C18.2957 8.27051 17.4685 7.45117 17.4685 6.43091V2.72852ZM21.1477 30.4541H4.20483C2.75952 30.4541 1.5459 29.2561 1.5459 27.8027V4.19702C1.5459 2.75171 2.75171 1.5459 4.20483 1.5459H15.9226V6.43091C15.9226 8.30908 17.4377 9.81641 19.3159 9.81641H23.8066V27.8027C23.8066 29.2561 22.6008 30.4541 21.1477 30.4541Z" fill="white"/>
<path d="M19.0376 25.1208H6.31494C5.88989 25.1208 5.54199 25.4685 5.54199 25.8938C5.54199 26.3188 5.88989 26.6667 6.31494 26.6667H19.0454C19.4705 26.6667 19.8184 26.3188 19.8184 25.8938C19.8184 25.4685 19.4705 25.1208 19.0376 25.1208Z" fill="white"/>
<path d="M7.72931 14.3071C8.15436 14.3071 8.50226 13.9595 8.50226 13.5342V12.5989H11.9031V20.6377H10.4578C10.0325 20.6377 9.68488 20.9856 9.68488 21.4106C9.68488 21.8357 10.0325 22.1836 10.4578 22.1836H14.9022C15.3275 22.1836 15.6751 21.8357 15.6751 21.4106C15.6751 20.9856 15.3275 20.6377 14.9022 20.6377H13.449V12.5991H16.8502V13.5344C16.8502 13.9595 17.1978 14.3074 17.6231 14.3074C18.0482 14.3074 18.3961 13.9595 18.3961 13.5344V11.803C18.3961 11.3777 18.0328 11.0532 17.6077 11.0532H7.74469C7.31964 11.0532 6.95636 11.3777 6.95636 11.803V13.5344C6.95636 13.9595 7.30426 14.3071 7.72931 14.3071Z" fill="white"/>
</svg>
