<svg width="26" height="32" viewBox="0 0 26 32" fill="none" xmlns="http://www.w3.org/2000/svg">
<path d="M17.2444 0.247314C17.0977 0.0927734 16.8965 0 16.688 0H4.20483C1.90137 0 0 1.8938 0 4.19702V27.8027C0 30.1062 1.90137 32 4.20483 32H21.1477C23.4512 32 25.3525 30.1062 25.3525 27.8027V9.05884C25.3525 8.85791 25.2598 8.66479 25.1284 8.51782L17.2444 0.247314ZM17.4685 2.72852L22.7478 8.27051H19.3159C18.2957 8.27051 17.4685 7.45117 17.4685 6.43091V2.72852ZM21.1477 30.4541H4.20483C2.75952 30.4541 1.5459 29.2561 1.5459 27.8027V4.19702C1.5459 2.75171 2.75171 1.5459 4.20483 1.5459H15.9226V6.43091C15.9226 8.30908 17.4377 9.81641 19.3159 9.81641H23.8066V27.8027C23.8066 29.2561 22.6008 30.4541 21.1477 30.4541Z" fill="white"/>
<path d="M19.0376 25.1208H6.31494C5.88989 25.1208 5.54199 25.4684 5.54199 25.8937C5.54199 26.3188 5.88989 26.6667 6.31494 26.6667H19.0454C19.4705 26.6667 19.8184 26.3188 19.8184 25.8937C19.8184 25.4684 19.4705 25.1208 19.0376 25.1208Z" fill="white"/>
<path d="M11.6096 24.2009C13.3564 24.2009 14.9951 23.5208 16.2319 22.2839C17.4609 21.032 18.1411 19.4087 18.1411 17.6851C18.1411 17.2598 17.7932 16.9275 17.3682 16.9275H12.3672V11.9111C12.3672 11.4861 12.0271 11.1382 11.6018 11.1382C9.85498 11.1382 8.21631 11.8184 6.97974 13.0549C5.75073 14.3071 5.07812 15.9458 5.07812 17.6694C5.07837 21.2715 8.00781 24.2009 11.6096 24.2009ZM8.07715 14.145C8.83472 13.3875 9.81641 12.9082 10.8213 12.7458V17.6694C10.8213 18.0947 11.1846 18.4734 11.6096 18.4734H16.5332C16.3708 19.4783 15.8918 20.4443 15.1343 21.2097C14.1912 22.1526 12.939 22.655 11.6096 22.655C8.85791 22.655 6.62402 20.4133 6.62402 17.6694C6.62402 16.3555 7.13428 15.0957 8.07715 14.145Z" fill="white"/>
<path d="M18.3575 10.9448C17.1053 9.71606 15.4744 9.04346 13.7508 9.04346C13.3257 9.04346 12.9857 9.39136 12.9857 9.81641V15.575C12.9857 16 13.3179 16.3169 13.743 16.3169H19.5015C19.9266 16.3169 20.2745 15.9846 20.2745 15.5596C20.2745 13.8357 19.5943 12.2048 18.3653 10.9526C18.3653 10.9448 18.3653 10.9448 18.3575 10.9448ZM14.5316 14.7632V10.6436C15.5362 10.8057 16.5101 11.2695 17.2755 12.0271C18.0252 12.7922 18.5045 13.7583 18.6668 14.7632H14.5316Z" fill="white"/>
</svg>
