<svg width="26" height="32" viewBox="0 0 26 32" fill="none" xmlns="http://www.w3.org/2000/svg">
<path d="M17.2444 0.247314C17.0977 0.0927734 16.8965 0 16.688 0H4.20483C1.90137 0 0 1.8938 0 4.19702V27.8027C0 30.1062 1.90137 32 4.20483 32H21.1477C23.4512 32 25.3525 30.1062 25.3525 27.8027V9.05884C25.3525 8.85791 25.2598 8.66479 25.1284 8.51782L17.2444 0.247314ZM17.4685 2.72852L22.7478 8.27051H19.3159C18.2957 8.27051 17.4685 7.45117 17.4685 6.43091V2.72852ZM21.1477 30.4541H4.20483C2.75952 30.4541 1.5459 29.2561 1.5459 27.8027V4.19702C1.5459 2.75171 2.75171 1.5459 4.20483 1.5459H15.9226V6.43091C15.9226 8.30908 17.4377 9.81641 19.3159 9.81641H23.8066V27.8027C23.8066 29.2561 22.6008 30.4541 21.1477 30.4541Z" fill="white"/>
<path d="M19.0376 25.1208H6.31494C5.88989 25.1208 5.54199 25.4685 5.54199 25.8938C5.54199 26.3188 5.88989 26.6667 6.31494 26.6667H19.0454C19.4705 26.6667 19.8184 26.3188 19.8184 25.8938C19.8184 25.4685 19.4705 25.1208 19.0376 25.1208Z" fill="white"/>
<path d="M7.42018 22.802C7.49758 22.802 7.57497 22.7867 7.65212 22.7632L12.0425 21.3797C12.1585 21.3411 12.2666 21.2793 12.3594 21.1866L19.2542 14.2686C19.5557 13.9671 19.5557 13.4803 19.2542 13.1788L16.2705 10.1951C15.969 9.89384 15.4822 9.89384 15.1807 10.1951L8.26271 17.0977C8.17775 17.1827 8.10817 17.2908 8.0696 17.4146L6.67824 21.7972C6.59328 22.0755 6.66286 22.3692 6.8716 22.5777C7.01833 22.7247 7.21926 22.802 7.42018 22.802ZM9.15944 19.084L10.3653 20.2898L8.60305 20.8465L9.15944 19.084ZM15.7217 11.8338L17.6155 13.7276L11.8106 19.5479L9.90139 17.6387L15.7217 11.8338Z" fill="white"/>
</svg>
