<svg width="26" height="32" viewBox="0 0 26 32" fill="none" xmlns="http://www.w3.org/2000/svg">
<path d="M17.2444 0.247314C17.0977 0.0927734 16.8965 0 16.688 0H4.20483C1.90137 0 0 1.8938 0 4.19702V27.8027C0 30.1062 1.90137 32 4.20483 32H21.1477C23.4512 32 25.3525 30.1062 25.3525 27.8027V9.05884C25.3525 8.85791 25.2598 8.66479 25.1284 8.51782L17.2444 0.247314ZM17.4685 2.72852L22.7478 8.27051H19.3159C18.2957 8.27051 17.4685 7.45117 17.4685 6.43091V2.72852ZM21.1477 30.4541H4.20483C2.75952 30.4541 1.5459 29.2561 1.5459 27.8027V4.19702C1.5459 2.75171 2.75171 1.5459 4.20483 1.5459H15.9226V6.43091C15.9226 8.30908 17.4377 9.81641 19.3159 9.81641H23.8066V27.8027C23.8066 29.2561 22.6008 30.4541 21.1477 30.4541Z" fill="white"/>
<path d="M19.0376 25.1208H6.31494C5.88989 25.1208 5.54199 25.4684 5.54199 25.8937C5.54199 26.3188 5.88989 26.6667 6.31494 26.6667H19.0454C19.4705 26.6667 19.8184 26.3188 19.8184 25.8937C19.8184 25.4684 19.4705 25.1208 19.0376 25.1208Z" fill="white"/>
<path d="M19.7023 14.8328L18.7206 14.7401C18.6047 14.3692 18.4501 14.0135 18.2724 13.6734L18.8908 12.9315C19.1459 12.6222 19.1227 12.1817 18.8444 11.8958L17.4223 10.4581C17.144 10.172 16.6879 10.1488 16.3788 10.4039L15.6291 11.0223C15.2812 10.8368 14.9257 10.6898 14.5624 10.5741L14.4697 9.59237C14.4311 9.19808 14.0986 8.89681 13.6967 8.89681H11.6562C11.2541 8.89681 10.9218 9.19808 10.883 9.59237L10.7905 10.5662C10.4194 10.6822 10.0639 10.8368 9.72382 11.0145L8.98163 10.3961C8.67255 10.1412 8.22406 10.1644 7.94598 10.4425L6.50824 11.8802C6.22992 12.1585 6.20673 12.6146 6.46185 12.9159L7.08026 13.6659C6.89471 14.0135 6.74774 14.3692 6.63202 14.7325L5.65033 14.825C5.25604 14.8638 4.94696 15.1961 4.94696 15.5982V17.6388C4.94696 18.0406 5.25629 18.3729 5.65033 18.4117L6.63202 18.5045C6.74799 18.8753 6.90253 19.231 7.08026 19.5711L6.46185 20.3131C6.20673 20.6224 6.22992 21.0706 6.50824 21.349L7.94598 22.7865C8.23187 23.0648 8.68011 23.088 8.98944 22.8328L9.7392 22.2144C10.0869 22.4 10.4426 22.547 10.8058 22.6627L10.8986 23.6522C10.9372 24.0465 11.2695 24.3477 11.6716 24.3477H13.7121C14.114 24.3477 14.4465 24.0465 14.485 23.6522L14.5778 22.6783C14.9489 22.5623 15.3044 22.4078 15.6445 22.2301L16.3864 22.8485C16.6957 23.1034 17.144 23.0802 17.4223 22.8021L18.86 21.3643C19.1381 21.086 19.1613 20.63 18.9062 20.3287L18.288 19.5789C18.4733 19.231 18.6203 18.8756 18.7363 18.5123L19.7023 18.4195C20.0966 18.3807 20.4057 18.0484 20.4057 17.6466V15.6058C20.4057 15.2039 20.0966 14.8638 19.7023 14.8328ZM18.8598 16.9354L18.0558 17.0125C17.7236 17.0435 17.4453 17.2909 17.3757 17.6156C17.2597 18.1644 17.028 18.7054 16.6955 19.2154C16.5099 19.5015 16.5331 19.8648 16.7497 20.1275L17.2675 20.7537L16.8271 21.1942L16.2009 20.6763C15.9382 20.4598 15.5593 20.4366 15.2812 20.63C14.8095 20.9469 14.2531 21.1788 13.6889 21.3023C13.3564 21.3719 13.1169 21.6502 13.0859 21.9825L13.0087 22.7943H12.3671L12.2897 21.9825C12.259 21.6502 12.0117 21.3719 11.687 21.3023C11.1381 21.1864 10.5971 20.9547 10.0869 20.6222C9.80096 20.4366 9.43768 20.4598 9.17499 20.6763L8.54877 21.1942L8.10834 20.7537L8.62616 20.1275C8.84247 19.8648 8.86566 19.4937 8.67255 19.2078C8.35565 18.7362 8.12372 18.1798 7.99994 17.6156C7.9306 17.283 7.64447 17.0435 7.31219 17.0125L6.49286 16.9354V16.3016L7.31219 16.2242C7.64447 16.1934 7.92279 15.9459 7.99237 15.6214C8.10834 15.0726 8.34003 14.5316 8.67255 14.0213C8.85809 13.7354 8.8349 13.3722 8.61835 13.1092L8.10052 12.4832L8.5412 12.0426L9.16718 12.5606C9.42987 12.7769 9.80878 12.8001 10.0869 12.607C10.5585 12.2899 11.1149 12.0582 11.6791 11.9344C12.0117 11.8648 12.2512 11.5868 12.2822 11.2542L12.3593 10.4427H12.9931L13.0705 11.2542C13.1013 11.5868 13.3488 11.8648 13.6733 11.9344C14.2221 12.0504 14.7631 12.2823 15.2734 12.6146C15.5593 12.8001 15.9225 12.7769 16.1855 12.5606L16.8036 12.0504L17.2365 12.491L16.7187 13.117C16.5024 13.38 16.4792 13.7508 16.6723 14.0369C16.9892 14.5084 17.2211 15.0648 17.3449 15.6292C17.4145 15.9615 17.7004 16.201 18.0329 16.232L18.852 16.3094V16.9354H18.8598Z" fill="white"/>
<path d="M12.6762 12.514C10.4116 12.514 8.57196 14.3536 8.57196 16.6185C8.57196 18.8831 10.4116 20.7227 12.6762 20.7227C14.9409 20.7227 16.7805 18.8831 16.7805 16.6185C16.7805 14.3536 14.9411 12.514 12.6762 12.514ZM12.6762 19.1768C11.2695 19.1768 10.1179 18.0328 10.1179 16.6185C10.1179 15.2039 11.2617 14.0599 12.6762 14.0599C14.0908 14.0599 15.2348 15.2039 15.2348 16.6185C15.2348 18.0328 14.0829 19.1768 12.6762 19.1768Z" fill="white"/>
</svg>
