<svg width="26" height="32" viewBox="0 0 26 32" fill="none" xmlns="http://www.w3.org/2000/svg">
<path d="M17.2444 0.247314C17.0977 0.0927734 16.8965 0 16.688 0H4.20483C1.90137 0 0 1.8938 0 4.19702V27.8027C0 30.1062 1.90137 32 4.20483 32H21.1477C23.4512 32 25.3525 30.1062 25.3525 27.8027V9.05884C25.3525 8.85791 25.2598 8.66479 25.1284 8.51782L17.2444 0.247314ZM17.4685 2.72852L22.7478 8.27051H19.3159C18.2957 8.27051 17.4685 7.45117 17.4685 6.43091V2.72852ZM21.1477 30.4541H4.20483C2.75952 30.4541 1.5459 29.2561 1.5459 27.8027V4.19702C1.5459 2.75171 2.75171 1.5459 4.20483 1.5459H15.9226V6.43091C15.9226 8.30908 17.4377 9.81641 19.3159 9.81641H23.8066V27.8027C23.8066 29.2561 22.6008 30.4541 21.1477 30.4541Z" fill="white"/>
<path d="M19.0376 25.1208H6.31494C5.88989 25.1208 5.54199 25.4685 5.54199 25.8938C5.54199 26.3188 5.88989 26.6667 6.31494 26.6667H19.0454C19.4705 26.6667 19.8184 26.3188 19.8184 25.8938C19.8184 25.4685 19.4705 25.1208 19.0376 25.1208Z" fill="white"/>
<path d="M20.3903 15.3352L13.1708 9.19046C12.8849 8.94315 12.4599 8.94315 12.1662 9.19046L4.94668 15.3352C4.62222 15.6136 4.5834 16.1004 4.86172 16.4251C5.14004 16.7498 5.63467 16.7884 5.95938 16.5103L6.7941 15.7991V22.2996C6.7941 22.771 7.16519 23.1885 7.63663 23.1885H17.7003C18.1718 23.1885 18.5429 22.771 18.5429 22.2996V15.7991L19.3776 16.5103C19.5246 16.6338 19.7023 16.6956 19.88 16.6956C20.0966 16.6956 20.3207 16.6031 20.4674 16.4251C20.7536 16.1006 20.7148 15.6136 20.3903 15.3352ZM17.0048 21.6426H8.34781V14.4851L12.6762 10.7903L17.0048 14.4851V21.6426Z" fill="white"/>
</svg>
