<svg width="20" height="20" viewBox="0 0 20 20" fill="none" xmlns="http://www.w3.org/2000/svg">
<path d="M10 18.3333C5.39752 18.3333 1.66669 14.6025 1.66669 9.99999C1.66669 5.39749 5.39752 1.66666 10 1.66666C14.6025 1.66666 18.3334 5.39749 18.3334 9.99999C18.3334 14.6025 14.6025 18.3333 10 18.3333ZM10 16.6667C11.7681 16.6667 13.4638 15.9643 14.7141 14.714C15.9643 13.4638 16.6667 11.7681 16.6667 9.99999C16.6667 8.23188 15.9643 6.53619 14.7141 5.28594C13.4638 4.0357 11.7681 3.33332 10 3.33332C8.23191 3.33332 6.53622 4.0357 5.28598 5.28594C4.03573 6.53619 3.33335 8.23188 3.33335 9.99999C3.33335 11.7681 4.03573 13.4638 5.28598 14.714C6.53622 15.9643 8.23191 16.6667 10 16.6667ZM9.16669 12.5H10.8334V14.1667H9.16669V12.5ZM10.8334 11.1292V11.6667H9.16669V10.4167C9.16669 10.1956 9.25448 9.98368 9.41076 9.8274C9.56705 9.67112 9.77901 9.58332 10 9.58332C10.2368 9.58331 10.4686 9.51607 10.6686 9.38943C10.8686 9.26279 11.0286 9.08196 11.1298 8.86798C11.2311 8.65399 11.2695 8.41565 11.2406 8.18069C11.2117 7.94573 11.1166 7.72381 10.9665 7.54075C10.8164 7.35769 10.6174 7.22101 10.3927 7.14663C10.168 7.07225 9.92672 7.06321 9.69704 7.12058C9.46736 7.17794 9.2587 7.29935 9.09533 7.47067C8.93195 7.64199 8.82059 7.85618 8.77419 8.08832L7.13919 7.76082C7.24055 7.25423 7.47461 6.78363 7.81745 6.39714C8.1603 6.01066 8.59962 5.72214 9.09051 5.56109C9.5814 5.40004 10.1063 5.37223 10.6114 5.4805C11.1166 5.58878 11.5839 5.82925 11.9657 6.17734C12.3475 6.52544 12.63 6.96866 12.7843 7.46171C12.9386 7.95476 12.9592 8.47994 12.8441 8.98358C12.7289 9.48722 12.4821 9.95124 12.1288 10.3282C11.7755 10.7052 11.3285 10.9816 10.8334 11.1292Z" fill="white"/>
</svg>
