<svg width="42" height="52" viewBox="0 0 42 52" fill="none" xmlns="http://www.w3.org/2000/svg">
<path d="M8 35.641H30.2692M40.7436 15.1026H29.2051C28.5251 15.1026 27.8729 14.8324 27.392 14.3516C26.9112 13.8707 26.641 13.2185 26.641 12.5385V1H3.5641C2.88406 1 2.23187 1.27015 1.75101 1.75101C1.27015 2.23187 1 2.88406 1 3.5641V48.4359C1 49.1159 1.27015 49.7681 1.75101 50.249C2.23187 50.7299 2.88406 51 3.5641 51H38.1795C38.8595 51 39.5117 50.7299 39.9926 50.249C40.4734 49.7681 40.7436 49.1159 40.7436 48.4359V15.1026ZM26.641 1L40.7436 15.1026L26.641 1ZM8 14.4615H19.1538H8ZM8 42.6923H15.2179H8ZM8 21.5128H30.2692H8ZM8 28.5769H30.2692H8Z" stroke="black" stroke-opacity="0.6" stroke-linecap="round" stroke-linejoin="round"/>
</svg>
