<svg width="26" height="29" viewBox="0 0 26 29" fill="none" xmlns="http://www.w3.org/2000/svg">
<path d="M20 22H22V24H2V22H4V15C4 12.8783 4.84285 10.8434 6.34315 9.34315C7.84344 7.84285 9.87827 7 12 7C14.1217 7 16.1566 7.84285 17.6569 9.34315C19.1571 10.8434 20 12.8783 20 15V22ZM18 22V15C18 13.4087 17.3679 11.8826 16.2426 10.7574C15.1174 9.63214 13.5913 9 12 9C10.4087 9 8.88258 9.63214 7.75736 10.7574C6.63214 11.8826 6 13.4087 6 15V22H18ZM9 26H15V28H9V26Z" fill="black"/>
<circle cx="19" cy="7" r="6.5" fill="#00AEEF" stroke="#ECEFF6"/>
</svg>
