<svg width="32" height="40" viewBox="0 0 32 40" fill="none" xmlns="http://www.w3.org/2000/svg">
<path d="M21.5555 0.309143C21.3721 0.115967 21.1206 0 20.86 0H5.25604C2.37671 0 0 2.36725 0 5.24628V34.7534C0 37.6328 2.37671 40 5.25604 40H26.4346C29.314 40 31.6907 37.6328 31.6907 34.7534V11.3235C31.6907 11.0724 31.5747 10.831 31.4105 10.6473L21.5555 0.309143ZM21.8356 3.41064L28.4348 10.3381H24.1449C22.8696 10.3381 21.8356 9.31396 21.8356 8.03864V3.41064ZM26.4346 38.0676H5.25604C3.4494 38.0676 1.93237 36.5701 1.93237 34.7534V5.24628C1.93237 3.43964 3.43964 1.93237 5.25604 1.93237H19.9033V8.03864C19.9033 10.3864 21.7972 12.2705 24.1449 12.2705H29.7583V34.7534C29.7583 36.5701 28.251 38.0676 26.4346 38.0676Z" fill="#00AEEF"/>
<path d="M23.7969 31.4011H7.89362C7.3623 31.4011 6.92743 31.8356 6.92743 32.3672C6.92743 32.8986 7.3623 33.3334 7.89362 33.3334H23.8067C24.338 33.3334 24.7729 32.8986 24.7729 32.3672C24.7729 31.8356 24.338 31.4011 23.7969 31.4011Z" fill="#00AEEF"/>
<path d="M14.4927 26.7923C16.0482 26.7923 17.4783 26.2802 18.6279 25.4108L21.4684 28.2416C21.6619 28.425 21.9033 28.5217 22.1545 28.5217C22.4056 28.5217 22.6473 28.425 22.8405 28.2416C23.2174 27.8647 23.2174 27.2562 22.8405 26.8793L19.9999 24.0482C20.8697 22.8986 21.3912 21.459 21.3912 19.913C21.3912 16.116 18.2995 13.0338 14.4927 13.0338C10.686 13.0338 7.59424 16.116 7.59424 19.913C7.59424 23.71 10.6954 26.7923 14.4927 26.7923ZM14.4927 14.9564C17.2271 14.9564 19.4589 17.1786 19.4589 19.9033C19.4589 21.2561 18.9178 22.4734 18.0288 23.3719C18.0193 23.3817 17.9998 23.3911 17.9904 23.4106C17.9806 23.4201 17.9708 23.4299 17.9614 23.4396C17.0626 24.3091 15.8355 24.8502 14.4927 24.8502C11.7584 24.8502 9.52631 22.6279 9.52631 19.9033C9.53607 17.1786 11.7584 14.9564 14.4927 14.9564Z" fill="#00AEEF"/>
</svg>
