<svg width="32" height="40" viewBox="0 0 32 40" fill="none" xmlns="http://www.w3.org/2000/svg">
<path d="M21.5555 0.309143C21.3721 0.115967 21.1206 0 20.86 0H5.25604C2.37671 0 0 2.36725 0 5.24628V34.7534C0 37.6328 2.37671 40 5.25604 40H26.4346C29.314 40 31.6907 37.6328 31.6907 34.7534V11.3235C31.6907 11.0724 31.5747 10.831 31.4105 10.6473L21.5555 0.309143ZM21.8356 3.41064L28.4348 10.3381H24.1449C22.8696 10.3381 21.8356 9.31396 21.8356 8.03864V3.41064ZM26.4346 38.0676H5.25604C3.4494 38.0676 1.93237 36.5701 1.93237 34.7534V5.24628C1.93237 3.43964 3.43964 1.93237 5.25604 1.93237H19.9033V8.03864C19.9033 10.3864 21.7972 12.2705 24.1449 12.2705H29.7583V34.7534C29.7583 36.5701 28.251 38.0676 26.4346 38.0676Z" fill="#00AEEF"/>
<path d="M23.7972 31.4009H7.89392C7.36261 31.4009 6.92773 31.8354 6.92773 32.3671C6.92773 32.8984 7.36261 33.3333 7.89392 33.3333H23.807C24.3383 33.3333 24.7732 32.8984 24.7732 32.3671C24.7732 31.8354 24.3383 31.4009 23.7972 31.4009Z" fill="#00AEEF"/>
<path d="M22.9178 18.8406C23.5941 18.3187 24.0388 17.4975 24.0388 16.5795C24.0388 15.0048 22.7634 13.7295 21.1884 13.7295C19.6137 13.7295 18.3381 15.0048 18.3381 16.5795C18.3381 16.6085 18.3381 16.6375 18.3381 16.6665C17.855 15.7775 16.9178 15.169 15.8356 15.169C14.7535 15.169 13.8068 15.7778 13.3335 16.6665C13.3335 16.6375 13.3335 16.6183 13.3335 16.5893C13.3335 16.5795 13.3335 16.5795 13.3335 16.5701C13.3335 14.9951 12.0579 13.7197 10.4832 13.7197C8.90814 13.7197 7.63281 15.0143 7.63281 16.5893C7.63281 17.5073 8.07715 18.3285 8.76318 18.85C7.3139 19.3621 6.28027 20.7537 6.28027 22.3766V25.3817C6.28027 25.913 6.69562 26.3766 7.22723 26.3766H11.5943V26.8405C11.5943 27.3718 12.0484 27.8259 12.5797 27.8259H19.0821C19.6137 27.8259 20.087 27.3815 20.087 26.8405V26.3766H24.4541C24.9857 26.3766 25.4011 25.913 25.4011 25.3817V22.3766C25.4105 20.744 24.3671 19.3527 22.9178 18.8406ZM21.1884 15.6713C21.6907 15.6713 22.1064 16.087 22.1064 16.5893C22.1064 17.1014 21.7005 17.5073 21.1884 17.5073C20.6861 17.5073 20.2704 17.0916 20.2704 16.5893C20.2704 16.087 20.6861 15.6713 21.1884 15.6713ZM19.4688 18.8598C18.9951 19.0338 18.57 19.2947 18.2029 19.623C18.512 19.1689 18.686 18.6184 18.686 18.0288C18.686 17.9998 18.686 17.9711 18.686 17.9418C18.8792 18.2995 19.1498 18.6086 19.4688 18.8598ZM14.087 20.3283C14.0677 20.2993 14.0482 20.2609 14.0192 20.2319C14.058 20.2609 14.087 20.2899 14.1257 20.3188C14.116 20.3188 14.0967 20.3188 14.087 20.3283ZM17.5944 20.3283C17.5748 20.3188 17.5654 20.3188 17.5458 20.3091C17.5944 20.2703 17.6426 20.2413 17.681 20.2029C17.6523 20.2416 17.6234 20.2801 17.5944 20.3283ZM15.8356 17.1111C16.3383 17.1111 16.7536 17.5265 16.7536 18.0288C16.7536 18.5311 16.3383 18.9468 15.8356 18.9468C15.3333 18.9468 14.918 18.5311 14.918 18.0288C14.918 17.5265 15.3333 17.1111 15.8356 17.1111ZM12.9856 17.9324C12.9856 17.9614 12.9856 17.9998 12.9856 18.0288C12.9856 18.6086 13.1595 19.14 13.4492 19.5843C13.0918 19.2657 12.6667 19.0142 12.2126 18.85C12.5315 18.6086 12.7924 18.2995 12.9856 17.9324ZM10.4832 15.6713C10.9855 15.6713 11.3914 16.0772 11.4008 16.5795C11.3914 17.1014 10.9855 17.5073 10.4832 17.5073C9.98083 17.5073 9.56519 17.0916 9.56519 16.5893C9.56519 16.087 9.97107 15.6713 10.4832 15.6713ZM8.21265 24.4445V22.3766C8.21265 21.3815 9.00488 20.5798 10.0098 20.5798H10.9662C11.6038 20.5798 12.1738 20.9081 12.5025 21.4395C11.9517 22.087 11.6038 22.9275 11.6038 23.8452V24.4442L8.21265 24.4445ZM18.1644 25.8935H13.5267V23.8455C13.5267 22.8503 14.3574 22.0291 15.3623 22.0291H16.3187C17.3139 22.0291 18.1739 22.8405 18.1739 23.8455V25.8935H18.1644ZM23.4781 24.4445H20.0965V23.8455C20.0965 22.9275 19.7489 22.0965 19.1981 21.4492C19.5264 20.9179 20.0965 20.5798 20.7343 20.5798H21.6907C22.6859 20.5798 23.4879 21.3815 23.4879 22.3766V24.4445H23.4781Z" fill="#00AEEF"/>
</svg>
