<svg width="32" height="40" viewBox="0 0 32 40" fill="none" xmlns="http://www.w3.org/2000/svg">
<path d="M21.5555 0.309143C21.3721 0.115967 21.1206 0 20.86 0H5.25604C2.37671 0 0 2.36725 0 5.24628V34.7534C0 37.6328 2.37671 40 5.25604 40H26.4346C29.314 40 31.6907 37.6328 31.6907 34.7534V11.3235C31.6907 11.0724 31.5747 10.831 31.4105 10.6473L21.5555 0.309143ZM21.8356 3.41064L28.4348 10.3381H24.1449C22.8696 10.3381 21.8356 9.31396 21.8356 8.03864V3.41064ZM26.4346 38.0676H5.25604C3.4494 38.0676 1.93237 36.5701 1.93237 34.7534V5.24628C1.93237 3.43964 3.43964 1.93237 5.25604 1.93237H19.9033V8.03864C19.9033 10.3864 21.7972 12.2705 24.1449 12.2705H29.7583V34.7534C29.7583 36.5701 28.251 38.0676 26.4346 38.0676Z" fill="#00AEEF"/>
<path d="M23.7972 31.4009H7.89392C7.36261 31.4009 6.92773 31.8354 6.92773 32.3671C6.92773 32.8984 7.36261 33.3333 7.89392 33.3333H23.807C24.3383 33.3333 24.7732 32.8984 24.7732 32.3671C24.7732 31.8354 24.3383 31.4009 23.7972 31.4009Z" fill="#00AEEF"/>
<path d="M15.8451 22.9952C16.3764 22.9952 16.8113 22.5603 16.8113 22.0287V14.7826C16.8113 14.251 16.3764 13.8164 15.8451 13.8164C15.3138 13.8164 14.8789 14.251 14.8789 14.7826V22.0287C14.8789 22.5603 15.3138 22.9952 15.8451 22.9952Z" fill="#00AEEF"/>
<path d="M15.8451 27.3428C16.3764 27.3428 16.8113 26.9083 16.8113 26.3766V24.8309C16.8113 24.2993 16.3764 23.8647 15.8451 23.8647C15.3138 23.8647 14.8789 24.2993 14.8789 24.8309V26.3766C14.8789 26.9083 15.3138 27.3428 15.8451 27.3428Z" fill="#00AEEF"/>
</svg>
