<svg width="32" height="40" viewBox="0 0 32 40" fill="none" xmlns="http://www.w3.org/2000/svg">
<path d="M21.1929 0.653413L21.1936 0.654139L31.0424 10.9857C31.143 11.1004 31.1907 11.2256 31.1907 11.3235V34.7534C31.1907 37.3554 29.039 39.5 26.4346 39.5H5.25604C2.65168 39.5 0.5 37.3554 0.5 34.7534V5.24628C0.5 2.64458 2.65166 0.5 5.25604 0.5H20.86C20.9719 0.5 21.0956 0.55093 21.1929 0.653413ZM22.1977 3.06578L21.3356 2.16085V3.41064V8.03864C21.3356 9.59286 22.5962 10.8381 24.1449 10.8381H28.4348H29.6016L28.7968 9.99327L22.1977 3.06578ZM20.4033 1.93237V1.43237H19.9033H5.25604C3.16445 1.43237 1.43237 3.16254 1.43237 5.24628V34.7534C1.43237 36.8491 3.1761 38.5676 5.25604 38.5676H26.4346C28.5253 38.5676 30.2583 36.8481 30.2583 34.7534V12.2705V11.7705H29.7583H24.1449C22.0718 11.7705 20.4033 10.1087 20.4033 8.03864V1.93237Z" fill="#00AEEF" stroke="#00AEEF"/>
<path d="M7.89368 31.9011H23.797C24.0653 31.9011 24.2729 32.1151 24.2729 32.3672C24.2729 32.6224 24.0619 32.8334 23.8068 32.8334H7.89368C7.63851 32.8334 7.42749 32.6224 7.42749 32.3672C7.42749 32.1119 7.63841 31.9011 7.89368 31.9011Z" fill="#00AEEF" stroke="#00AEEF"/>
<path d="M20.1932 28.5194H20.6932V28.0194V24.512C20.6932 22.2684 18.8399 20.4662 16.6183 20.4662H15.0723C12.8499 20.4662 10.9975 22.279 10.9975 24.512V28.0194V28.5194H11.4975H20.1932ZM21.1304 29.4518H10.5603C10.2925 29.4518 10.0651 29.2185 10.0651 28.9758V24.512C10.0651 21.7676 12.321 19.5338 15.0723 19.5338H16.6183C19.3696 19.5338 21.6255 21.7676 21.6255 24.512V28.9758C21.6255 29.2185 21.3982 29.4518 21.1304 29.4518Z" fill="#00AEEF" stroke="#00AEEF"/>
<path d="M19.3743 14.8599C19.3743 16.8061 17.7915 18.3889 15.8453 18.3889C13.8992 18.3889 12.3164 16.8061 12.3164 14.8599C12.3164 12.9138 13.8992 11.331 15.8453 11.331C17.7915 11.331 19.3743 12.9138 19.3743 14.8599ZM18.4419 14.8599C18.4419 13.4244 17.2808 12.2634 15.8453 12.2634C14.4098 12.2634 13.2488 13.4244 13.2488 14.8599C13.2488 16.2954 14.4098 17.4565 15.8453 17.4565C17.2808 17.4565 18.4419 16.2954 18.4419 14.8599Z" fill="#00AEEF" stroke="#00AEEF"/>
</svg>
