<svg width="32" height="40" viewBox="0 0 32 40" fill="none" xmlns="http://www.w3.org/2000/svg">
<path d="M21.5555 0.309143C21.3721 0.115967 21.1206 0 20.86 0H5.25604C2.37671 0 0 2.36725 0 5.24628V34.7534C0 37.6328 2.37671 40 5.25604 40H26.4346C29.314 40 31.6907 37.6328 31.6907 34.7534V11.3235C31.6907 11.0724 31.5747 10.831 31.4105 10.6473L21.5555 0.309143ZM21.8356 3.41064L28.4348 10.3381H24.1449C22.8696 10.3381 21.8356 9.31396 21.8356 8.03864V3.41064ZM26.4346 38.0676H5.25604C3.4494 38.0676 1.93237 36.5701 1.93237 34.7534V5.24628C1.93237 3.43964 3.43964 1.93237 5.25604 1.93237H19.9033V8.03864C19.9033 10.3864 21.7972 12.2705 24.1449 12.2705H29.7583V34.7534C29.7583 36.5701 28.251 38.0676 26.4346 38.0676Z" fill="#00AEEF"/>
<path d="M23.7969 31.4011H7.89362C7.3623 31.4011 6.92743 31.8356 6.92743 32.3672C6.92743 32.8986 7.3623 33.3334 7.89362 33.3334H23.8067C24.338 33.3334 24.7729 32.8986 24.7729 32.3672C24.7729 31.8356 24.338 31.4011 23.7969 31.4011Z" fill="#00AEEF"/>
<path d="M13.0529 25.1013C13.2464 25.3043 13.5073 25.4108 13.7679 25.4108C13.9998 25.4108 14.2318 25.3238 14.425 25.1596L22.4346 17.8165C22.8307 17.4591 22.8597 16.8405 22.4926 16.4542C22.1352 16.058 21.5166 16.0385 21.1303 16.3962L13.8161 23.0823L10.2413 19.198C9.88394 18.8019 9.26566 18.7827 8.879 19.1403C8.48288 19.4977 8.46366 20.116 8.82102 20.5026L13.0529 25.1013Z" fill="#00AEEF"/>
</svg>
