<svg width="34" height="40" viewBox="0 0 34 40" fill="none" xmlns="http://www.w3.org/2000/svg">
<path d="M24.8285 0.255127C24.6771 0.09552 24.4699 0 24.2548 0H11.3864C9.26697 0 7.49786 1.55365 7.14722 3.57758C5.36255 3.88855 3.95996 5.29877 3.64929 7.07581C1.58569 7.39441 0 9.18732 0 11.3385V35.6732C0 38.0478 1.92017 40 4.29474 40H21.7609C23.8803 40 25.6415 38.454 26.0001 36.4301C27.8247 36.1514 29.2749 34.7171 29.5856 32.9004C31.6095 32.5497 33.1473 30.7809 33.1473 28.6533V9.33868C33.1473 9.13147 33.0756 8.93219 32.9321 8.78082L24.8285 0.255127ZM25.0198 2.81281L30.502 8.526H26.9641C25.9122 8.526 25.0198 7.68127 25.0198 6.62933V2.81281ZM21.7609 38.4064H4.29474C2.79663 38.4064 1.59363 37.1713 1.59363 35.6732V11.3388C1.59363 10.0955 2.39044 9.04388 3.58551 8.72528V32.1674C3.58551 34.5419 5.50598 36.4941 7.88025 36.4941H24.3506C24.0079 37.6096 22.98 38.4064 21.7609 38.4064ZM25.3467 34.9005H7.88025C6.39038 34.9005 5.17914 33.6655 5.17914 32.1674V7.83264C5.17914 6.61346 5.97595 5.58563 7.09137 5.24292V28.6615C7.09137 31.0358 9.01184 32.988 11.3864 32.988H27.9361C27.5937 34.1037 26.5656 34.9005 25.3467 34.9005ZM28.8525 31.3943H11.3864C9.89624 31.3943 8.6853 30.1593 8.6853 28.6612V4.32678C8.6853 2.83661 9.88831 1.59363 11.3864 1.59363H23.4262V6.62933C23.4262 8.56567 25.0278 10.1196 26.9641 10.1196H31.5536V28.6612C31.5536 30.1593 30.3506 31.3943 28.8525 31.3943Z" fill="#00AEEF"/>
<path d="M26.6772 26.2949H13.5617C13.1235 26.2949 12.7649 26.6534 12.7649 27.0917C12.7649 27.5299 13.1235 27.8885 13.5617 27.8885H26.6852C27.1234 27.8885 27.482 27.5299 27.482 27.0917C27.482 26.6534 27.1234 26.2949 26.6772 26.2949Z" fill="#00AEEF"/>
<path d="M22.9878 14.024C22.6772 13.7131 22.1751 13.7131 21.8642 14.024L20.1271 15.7611L18.3821 14.024C18.0714 13.7131 17.5694 13.7131 17.2588 14.024C16.9481 14.3347 16.9481 14.8367 17.2588 15.1474L18.9958 16.8845L17.2588 18.6215C16.9481 18.9322 16.9481 19.4342 17.2588 19.7452C17.4181 19.9045 17.6173 19.9762 17.8246 19.9762C18.0318 19.9762 18.2307 19.8965 18.3904 19.7452L20.1274 18.0081L21.8645 19.7452C22.0238 19.9045 22.2231 19.9762 22.4303 19.9762C22.6372 19.9762 22.8365 19.8965 22.9958 19.7452C23.3067 19.4342 23.3067 18.9322 22.9958 18.6215L21.2428 16.8924L22.9799 15.1553C23.2985 14.8447 23.2985 14.3347 22.9878 14.024Z" fill="#00AEEF"/>
<path d="M20.1193 8.77289C15.6415 8.77289 11.9998 12.4142 11.9998 16.8924C11.9998 21.3705 15.6415 25.0119 20.1193 25.0119C24.5975 25.0119 28.2391 21.3705 28.2391 16.8924C28.2391 12.4142 24.5975 8.77289 20.1193 8.77289ZM20.1193 23.4183C16.5179 23.4183 13.5934 20.4941 13.5934 16.8924C13.5934 13.291 16.5179 10.3665 20.1193 10.3665C23.721 10.3665 26.6452 13.291 26.6452 16.8924C26.6452 20.4941 23.721 23.4183 20.1193 23.4183Z" fill="#00AEEF"/>
</svg>
