<svg width="33" height="41" viewBox="0 0 33 41" fill="none" xmlns="http://www.w3.org/2000/svg">
<path d="M22.4505 0.311096C22.2671 0.11792 22.0156 0.00195312 21.755 0.00195312H6.15106C3.27173 0.00195312 0.89502 2.3692 0.89502 5.24823V34.7554C0.89502 37.6347 3.27173 40.002 6.15106 40.002H27.3297C30.209 40.002 32.5857 37.6347 32.5857 34.7554V11.3255C32.5857 11.0743 32.4697 10.8329 32.3055 10.6492L22.4505 0.311096ZM22.7307 3.4126L29.3298 10.3401H25.0399C23.7646 10.3401 22.7307 9.31592 22.7307 8.04059V3.4126ZM27.3297 38.0696H6.15106C4.34442 38.0696 2.82739 36.5721 2.82739 34.7554V5.24823C2.82739 3.44159 4.33466 1.93433 6.15106 1.93433H20.7983V8.04059C20.7983 10.3883 22.6922 12.2725 25.0399 12.2725H30.6533V34.7554C30.6533 36.5721 29.1461 38.0696 27.3297 38.0696Z" fill="#00AEEF"/>
<path d="M24.692 31.4031H8.78864C8.25732 31.4031 7.82245 31.8376 7.82245 32.3693C7.82245 32.9006 8.25732 33.3354 8.78864 33.3354H24.7017C25.233 33.3354 25.6679 32.9006 25.6679 32.3693C25.6679 31.8376 25.233 31.4031 24.692 31.4031Z" fill="#00AEEF"/>
<path d="M9.54211 28.2146H12.5182C13.0495 28.2146 13.4648 27.8087 13.4648 27.2676V24.485C13.4648 23.9537 13.0495 23.5674 12.5182 23.5674H12.0061V21.7314H15.7741V23.5674H15.2523C14.7209 23.5674 14.3248 23.9537 14.3248 24.485V27.2676C14.3248 27.7993 14.7209 28.2146 15.2523 28.2146H18.2283C18.7596 28.2146 19.1558 27.8087 19.1558 27.2676V24.485C19.1558 23.9537 18.7596 23.5674 18.2283 23.5674H17.7065V21.7314H21.4745V23.5674H20.9722C20.4409 23.5674 20.0252 23.9537 20.0252 24.485V27.2676C20.0252 27.7993 20.4409 28.2146 20.9722 28.2146H23.9479C24.4796 28.2146 24.9626 27.8087 24.9626 27.2676V24.485C24.9626 23.9537 24.489 23.5674 23.9479 23.5674H23.4069V20.804C23.4069 20.2724 22.9625 19.7991 22.4312 19.7991H17.7065V18.4465H19.5519C20.0832 18.4465 20.5083 17.9634 20.5083 17.4318V14.2629C20.5083 13.7313 20.0832 13.3159 19.5519 13.3159H13.9287C13.3971 13.3159 12.9723 13.7218 12.9723 14.2629V17.4318C12.9723 17.9634 13.3974 18.4465 13.9287 18.4465H15.7741V19.7991H11.0494C10.5181 19.7991 10.0734 20.2724 10.0734 20.804V23.5768H9.54211C9.0108 23.5768 8.52771 23.9635 8.52771 24.4948V27.2774C8.52771 27.8087 9.00104 28.2146 9.54211 28.2146ZM17.2234 26.2822H16.2572V25.5092H17.2234V26.2822ZM23.0205 26.2822H21.9579V25.5092H23.0205V26.2822ZM14.9047 15.2678H18.5759V16.5236H14.9047V15.2678ZM11.523 26.2822H10.4601V25.5092H11.523V26.2822Z" fill="#00AEEF"/>
</svg>
