<svg width="33" height="41" viewBox="0 0 33 41" fill="none" xmlns="http://www.w3.org/2000/svg">
<path d="M22.4505 0.311096C22.2671 0.11792 22.0156 0.00195312 21.755 0.00195312H6.15106C3.27173 0.00195312 0.89502 2.3692 0.89502 5.24823V34.7554C0.89502 37.6347 3.27173 40.002 6.15106 40.002H27.3297C30.209 40.002 32.5857 37.6347 32.5857 34.7554V11.3255C32.5857 11.0743 32.4697 10.8329 32.3055 10.6492L22.4505 0.311096ZM22.7307 3.4126L29.3298 10.3401H25.0399C23.7646 10.3401 22.7307 9.31592 22.7307 8.04059V3.4126ZM27.3297 38.0696H6.15106C4.34442 38.0696 2.82739 36.5721 2.82739 34.7554V5.24823C2.82739 3.44159 4.33466 1.93433 6.15106 1.93433H20.7983V8.04059C20.7983 10.3883 22.6922 12.2725 25.0399 12.2725H30.6533V34.7554C30.6533 36.5721 29.1461 38.0696 27.3297 38.0696Z" fill="#00AEEF"/>
<path d="M24.692 31.4031H8.78864C8.25732 31.4031 7.82245 31.8376 7.82245 32.3693C7.82245 32.9006 8.25732 33.3354 8.78864 33.3354H24.7017C25.233 33.3354 25.6679 32.9006 25.6679 32.3693C25.6679 31.8376 25.233 31.4031 24.692 31.4031Z" fill="#00AEEF"/>
<path d="M23.8127 18.8425C24.489 18.3207 24.9337 17.4995 24.9337 16.5815C24.9337 15.0068 23.6583 13.7314 22.0833 13.7314C20.5086 13.7314 19.233 15.0068 19.233 16.5815C19.233 16.6105 19.233 16.6395 19.233 16.6685C18.7499 15.7795 17.8127 15.171 16.7305 15.171C15.6484 15.171 14.7017 15.7798 14.2284 16.6685C14.2284 16.6395 14.2284 16.6202 14.2284 16.5912C14.2284 16.5815 14.2284 16.5815 14.2284 16.572C14.2284 14.997 12.9528 13.7217 11.3781 13.7217C9.80304 13.7217 8.52771 15.0162 8.52771 16.5912C8.52771 17.5092 8.97205 18.3304 9.65808 18.852C8.2088 19.3641 7.17517 20.7557 7.17517 22.3786V25.3837C7.17517 25.915 7.59052 26.3785 8.12213 26.3785H12.4892V26.8424C12.4892 27.3737 12.9433 27.8278 13.4746 27.8278H19.977C20.5086 27.8278 20.9819 27.3835 20.9819 26.8424V26.3785H25.349C25.8806 26.3785 26.296 25.915 26.296 25.3837V22.3786C26.3054 20.7459 25.262 19.3546 23.8127 18.8425ZM22.0833 15.6733C22.5856 15.6733 23.0013 16.0889 23.0013 16.5912C23.0013 17.1033 22.5954 17.5092 22.0833 17.5092C21.581 17.5092 21.1653 17.0936 21.1653 16.5912C21.1653 16.0889 21.581 15.6733 22.0833 15.6733ZM20.3636 18.8618C19.89 19.0357 19.4649 19.2966 19.0978 19.625C19.4069 19.1709 19.5809 18.6204 19.5809 18.0308C19.5809 18.0018 19.5809 17.9731 19.5809 17.9438C19.774 18.3015 20.0447 18.6106 20.3636 18.8618ZM14.9819 20.3303C14.9626 20.3013 14.9431 20.2628 14.9141 20.2338C14.9529 20.2628 14.9819 20.2918 15.0206 20.3208C15.0109 20.3208 14.9916 20.3208 14.9819 20.3303ZM18.4893 20.3303C18.4697 20.3208 18.4603 20.3208 18.4407 20.311C18.4893 20.2723 18.5375 20.2433 18.5759 20.2048C18.5472 20.2436 18.5182 20.282 18.4893 20.3303ZM16.7305 17.1131C17.2332 17.1131 17.6485 17.5284 17.6485 18.0308C17.6485 18.5331 17.2332 18.9487 16.7305 18.9487C16.2282 18.9487 15.8129 18.5331 15.8129 18.0308C15.8129 17.5284 16.2282 17.1131 16.7305 17.1131ZM13.8805 17.9343C13.8805 17.9633 13.8805 18.0018 13.8805 18.0308C13.8805 18.6106 14.0544 19.1419 14.3441 19.5862C13.9867 19.2676 13.5616 19.0162 13.1075 18.852C13.4264 18.6106 13.6873 18.3015 13.8805 17.9343ZM11.3781 15.6733C11.8804 15.6733 12.2863 16.0792 12.2957 16.5815C12.2863 17.1033 11.8804 17.5092 11.3781 17.5092C10.8757 17.5092 10.4601 17.0936 10.4601 16.5912C10.4601 16.0889 10.866 15.6733 11.3781 15.6733ZM9.10754 24.4465V22.3786C9.10754 21.3834 9.89978 20.5817 10.9047 20.5817H11.8611C12.4987 20.5817 13.0687 20.9101 13.3974 21.4414C12.8466 22.089 12.4987 22.9294 12.4987 23.8471V24.4462H9.10754V24.4465ZM19.0593 25.8954H14.4216V23.8474C14.4216 22.8522 15.2523 22.031 16.2572 22.031H17.2136C18.2088 22.031 19.0688 22.8425 19.0688 23.8474V25.8954H19.0593ZM24.373 24.4465H20.9914V23.8474C20.9914 22.9294 20.6438 22.0984 20.093 21.4512C20.4213 20.9199 20.9914 20.5817 21.6292 20.5817H22.5856C23.5808 20.5817 24.3828 21.3834 24.3828 22.3786V24.4465H24.373Z" fill="#00AEEF"/>
</svg>
