<svg width="33" height="41" viewBox="0 0 33 41" fill="none" xmlns="http://www.w3.org/2000/svg">
<path d="M22.4505 0.311096C22.2671 0.11792 22.0156 0.00195312 21.755 0.00195312H6.15106C3.27173 0.00195312 0.89502 2.3692 0.89502 5.24823V34.7554C0.89502 37.6347 3.27173 40.002 6.15106 40.002H27.3297C30.209 40.002 32.5857 37.6347 32.5857 34.7554V11.3255C32.5857 11.0743 32.4697 10.8329 32.3055 10.6492L22.4505 0.311096ZM22.7307 3.4126L29.3298 10.3401H25.0399C23.7646 10.3401 22.7307 9.31592 22.7307 8.04059V3.4126ZM27.3297 38.0696H6.15106C4.34442 38.0696 2.82739 36.5721 2.82739 34.7554V5.24823C2.82739 3.44159 4.33466 1.93433 6.15106 1.93433H20.7983V8.04059C20.7983 10.3883 22.6922 12.2725 25.0399 12.2725H30.6533V34.7554C30.6533 36.5721 29.1461 38.0696 27.3297 38.0696Z" fill="#00AEEF"/>
<path d="M24.692 31.4031H8.78864C8.25732 31.4031 7.82245 31.8376 7.82245 32.3693C7.82245 32.9006 8.25732 33.3354 8.78864 33.3354H24.7017C25.233 33.3354 25.6679 32.9006 25.6679 32.3693C25.6679 31.8376 25.233 31.4031 24.692 31.4031Z" fill="#00AEEF"/>
<path d="M16.7403 25.9053C17.2716 25.9053 17.7065 25.4705 17.7065 24.9391V23.3739C17.7065 22.8426 17.2716 22.4077 16.7403 22.4077C16.209 22.4077 15.7741 22.8426 15.7741 23.3739V24.9391C15.7741 25.4705 16.209 25.9053 16.7403 25.9053Z" fill="#00AEEF"/>
<path d="M16.7403 30.2241C20.4698 30.2241 23.4938 27.1903 23.4938 23.4608C23.4938 21.5284 22.7306 19.7892 21.378 18.5526V15.973C21.378 13.4125 19.3007 11.3254 16.7403 11.3254C14.8177 11.3254 13.0687 12.5333 12.3924 14.34C12.209 14.8426 12.4602 15.3931 12.9625 15.5866C13.4651 15.77 14.0157 15.5189 14.2088 15.026C14.605 13.9728 15.6197 13.2676 16.75 13.2676C18.2475 13.2676 19.4554 14.4849 19.4554 15.9827V17.2773C18.5857 16.9102 17.7065 16.7072 16.75 16.7072C13.0205 16.7072 9.99651 19.741 9.99651 23.4705C9.97698 27.1903 13.0107 30.2241 16.7403 30.2241ZM16.7403 18.6298C19.4069 18.6298 21.5712 20.7941 21.5712 23.4608C21.5712 26.1274 19.4069 28.2917 16.7403 28.2917C14.0737 28.2917 11.9093 26.1274 11.9093 23.4608C11.9093 20.7941 14.0737 18.6298 16.7403 18.6298Z" fill="#00AEEF"/>
</svg>
