<svg width="33" height="41" viewBox="0 0 33 41" fill="none" xmlns="http://www.w3.org/2000/svg">
<path d="M22.4505 0.311096C22.2671 0.11792 22.0156 0.00195312 21.755 0.00195312H6.15106C3.27173 0.00195312 0.89502 2.3692 0.89502 5.24823V34.7554C0.89502 37.6347 3.27173 40.002 6.15106 40.002H27.3297C30.209 40.002 32.5857 37.6347 32.5857 34.7554V11.3255C32.5857 11.0743 32.4697 10.8329 32.3055 10.6492L22.4505 0.311096ZM22.7307 3.4126L29.3298 10.3401H25.0399C23.7646 10.3401 22.7307 9.31592 22.7307 8.04059V3.4126ZM27.3297 38.0696H6.15106C4.34442 38.0696 2.82739 36.5721 2.82739 34.7554V5.24823C2.82739 3.44159 4.33466 1.93433 6.15106 1.93433H20.7983V8.04059C20.7983 10.3883 22.6922 12.2725 25.0399 12.2725H30.6533V34.7554C30.6533 36.5721 29.1461 38.0696 27.3297 38.0696Z" fill="#00AEEF"/>
<path d="M24.692 31.4031H8.78864C8.25732 31.4031 7.82245 31.8376 7.82245 32.3693C7.82245 32.9006 8.25732 33.3354 8.78864 33.3354H24.7017C25.233 33.3354 25.6679 32.9006 25.6679 32.3693C25.6679 31.8376 25.233 31.4031 24.692 31.4031Z" fill="#00AEEF"/>
<path d="M25.5229 18.5428L24.2958 18.4269C24.1509 17.9633 23.9577 17.5187 23.7355 17.0936L24.5085 16.1661C24.8275 15.7795 24.7985 15.2289 24.4506 14.8716L22.6729 13.0744C22.325 12.7167 21.7549 12.6877 21.3686 13.0067L20.4314 13.7797C19.9965 13.5477 19.5522 13.364 19.0981 13.2194L18.9821 11.9922C18.9339 11.4994 18.5182 11.1228 18.0159 11.1228H15.4653C14.9626 11.1228 14.5473 11.4994 14.4988 11.9922L14.3831 13.2096C13.9193 13.3546 13.4749 13.5477 13.0498 13.7699L12.1221 12.9969C11.7357 12.6783 11.1751 12.7073 10.8275 13.0549L9.03033 14.8521C8.68243 15.2 8.65344 15.77 8.97235 16.1466L9.74536 17.0841C9.51343 17.5187 9.32971 17.9633 9.18506 18.4174L7.95795 18.5331C7.46509 18.5816 7.07874 18.9969 7.07874 19.4996V22.0502C7.07874 22.5526 7.46539 22.9679 7.95795 23.0164L9.18506 23.1324C9.33002 23.5959 9.52319 24.0406 9.74536 24.4657L8.97235 25.3931C8.65344 25.7798 8.68243 26.3401 9.03033 26.688L10.8275 28.4849C11.1849 28.8328 11.7452 28.8618 12.1318 28.5428L13.069 27.7698C13.5036 28.0018 13.9482 28.1855 14.4023 28.3301L14.5183 29.567C14.5665 30.0599 14.9819 30.4365 15.4845 30.4365H18.0352C18.5375 30.4365 18.9531 30.0599 19.0013 29.567L19.1173 28.3497C19.5812 28.2047 20.0255 28.0115 20.4506 27.7894L21.3781 28.5624C21.7647 28.881 22.325 28.852 22.6729 28.5044L24.4701 26.7072C24.8177 26.3593 24.8467 25.7892 24.5278 25.4127L23.7551 24.4755C23.9867 24.0406 24.1704 23.5963 24.3154 23.1422L25.5229 23.0262C26.0158 22.9777 26.4022 22.5623 26.4022 22.06V19.509C26.4022 19.0067 26.0158 18.5816 25.5229 18.5428ZM24.4698 21.171L23.4648 21.2675C23.0495 21.3062 22.7016 21.6154 22.6146 22.0212C22.4697 22.7073 22.1801 23.3835 21.7644 24.0211C21.5325 24.3787 21.5615 24.8328 21.8322 25.1612L22.4794 25.944L21.9289 26.4945L21.1461 25.8472C20.8177 25.5765 20.3441 25.5475 19.9965 25.7892C19.4069 26.1854 18.7114 26.4753 18.0062 26.6297C17.5905 26.7167 17.2911 27.0646 17.2524 27.4799L17.1559 28.4946H16.3539L16.2572 27.4799C16.2188 27.0646 15.9096 26.7167 15.5037 26.6297C14.8177 26.4847 14.1414 26.1951 13.5036 25.7795C13.1462 25.5475 12.6921 25.5765 12.3638 25.8472L11.581 26.4945L11.0305 25.944L11.6777 25.1612C11.9481 24.8328 11.9771 24.369 11.7357 24.0116C11.3396 23.422 11.0497 22.7265 10.895 22.0212C10.8083 21.6056 10.4506 21.3062 10.0353 21.2675L9.01111 21.171V20.3788L10.0353 20.282C10.4506 20.2436 10.7985 19.9341 10.8855 19.5286C11.0305 18.8425 11.3201 18.1663 11.7357 17.5284C11.9677 17.1711 11.9387 16.717 11.668 16.3883L11.0207 15.6058L11.5715 15.055L12.354 15.7026C12.6824 15.973 13.156 16.002 13.5036 15.7606C14.0932 15.3641 14.7887 15.0745 15.494 14.9198C15.9096 14.8328 16.209 14.4852 16.2477 14.0696L16.3442 13.0552H17.1364L17.2332 14.0696C17.2716 14.4852 17.5811 14.8328 17.9866 14.9198C18.6727 15.0648 19.3489 15.3547 19.9868 15.77C20.3441 16.002 20.7982 15.973 21.1269 15.7026L21.8996 15.0648L22.4407 15.6156L21.7934 16.3981C21.523 16.7267 21.494 17.1903 21.7354 17.548C22.1315 18.1373 22.4214 18.8328 22.5762 19.5383C22.6631 19.9537 23.0205 20.2531 23.4362 20.2918L24.46 20.3885V21.171H24.4698Z" fill="#00AEEF"/>
<path d="M16.7403 15.6443C13.9095 15.6443 11.61 17.9438 11.61 20.7749C11.61 23.6057 13.9095 25.9052 16.7403 25.9052C19.5711 25.9052 21.8706 23.6057 21.8706 20.7749C21.8706 17.9438 19.5714 15.6443 16.7403 15.6443ZM16.7403 23.9728C14.9819 23.9728 13.5424 22.5428 13.5424 20.7749C13.5424 19.0067 14.9721 17.5767 16.7403 17.5767C18.5085 17.5767 19.9385 19.0067 19.9385 20.7749C19.9385 22.5428 18.4987 23.9728 16.7403 23.9728Z" fill="#00AEEF"/>
</svg>
